<?xml version="1.0" encoding="UTF-8" standalone="no"?>
<svg
   xmlns:dc="http://purl.org/dc/elements/1.1/"
   xmlns:cc="http://creativecommons.org/ns#"
   xmlns:rdf="http://www.w3.org/1999/02/22-rdf-syntax-ns#"
   xmlns:svg="http://www.w3.org/2000/svg"
   xmlns="http://www.w3.org/2000/svg"
   xmlns:sodipodi="http://sodipodi.sourceforge.net/DTD/sodipodi-0.dtd"
   xmlns:inkscape="http://www.inkscape.org/namespaces/inkscape"
   width="512"
   height="512"
   viewBox="0 0 135.46666 135.46666"
   version="1.1"
   id="svg8"
   inkscape:version="1.0.1 (3bc2e813f5, 2020-09-07)"
   sodipodi:docname="logo.svg">
  <defs
     id="defs2">
    <rect
       x="-229.16917"
       y="-209.94632"
       width="543.33589"
       height="963.59569"
       id="rect917" />
  </defs>
  <sodipodi:namedview
     id="base"
     pagecolor="#ffffff"
     bordercolor="#666666"
     borderopacity="1.0"
     inkscape:pageopacity="0.0"
     inkscape:pageshadow="2"
     inkscape:zoom="0.98994949"
     inkscape:cx="422.46275"
     inkscape:cy="375.96536"
     inkscape:document-units="px"
     inkscape:current-layer="layer1"
     inkscape:document-rotation="0"
     showgrid="false"
     units="px"
     inkscape:window-width="1920"
     inkscape:window-height="1017"
     inkscape:window-x="1912"
     inkscape:window-y="59"
     inkscape:window-maximized="1"
     showguides="true"
     inkscape:guide-bbox="true">
    <sodipodi:guide
       position="-15.119047,183.84761"
       orientation="1,0"
       id="guide878" />
  </sodipodi:namedview>
  <metadata
     id="metadata5">
    <rdf:RDF>
      <cc:Work
         rdf:about="">
        <dc:format>image/svg+xml</dc:format>
        <dc:type
           rdf:resource="http://purl.org/dc/dcmitype/StillImage" />
        <dc:title></dc:title>
      </cc:Work>
    </rdf:RDF>
  </metadata>
  <g
     inkscape:label="Слой 1"
     inkscape:groupmode="layer"
     id="layer1">
    <rect
       style="opacity:0.999;fill:#ffdd55;stroke-width:0"
       id="rect1427"
       width="135.46666"
       height="135.46666"
       x="7.3011613e-08"
       y="0" />
    <g
       id="g845"
       transform="matrix(0.12591417,0,0,0.12591417,34.903265,34.750693)">
      <path
         class="st0"
         d="m 135.8371,193.29244 -85.818001,73.916 c -7.152,-1.17 -14.739,0.976 -20.248,6.493 -9.097,9.089 -9.097,23.835 0,32.925 9.089,9.096 23.835,9.096 32.924,0 5.517,-5.51 7.663,-13.096 6.494,-20.248 l 73.915001,-85.817 c 1.984,-2.31 2.054,-5.541 0.163,-7.432 -1.89,-1.889 -5.121,-1.82 -7.43,0.163 z"
         id="path835"
         style="fill:#000000;fill-opacity:1" />
      <polygon
         class="st0"
         points="80.719,140.632 110.684,176.346 139.222,152.402 109.25,116.681 "
         id="polygon839"
         transform="translate(-210.1299,-30.018557)" />
      <polygon
         class="st0"
         points="372.778,152.402 401.317,176.346 431.281,140.632 402.742,116.681 "
         id="polygon841"
         transform="translate(-210.1299,-30.018557)" />
      <path
         class="st0"
         d="m 18.444099,69.715443 v 16.947 h 54.854 v -16.947 c 3.836,-2.286 7.369,-5.029 10.499,-8.167 9.702,-9.686 15.715,-23.138 15.715,-37.93 0,-14.7930003 -6.013,-28.2440003 -15.715,-37.922 -9.687,-9.702 -23.138,-15.723 -37.931,-15.715 -14.785,-0.008 -28.244,6.013 -37.9299998,15.715 -9.694,9.6779997 -15.707,23.1299997 -15.707,37.922 0,14.792 6.013,28.244 15.707,37.93 3.1379998,3.138 6.6719998,5.881 10.5079998,8.167 z m 0,-45.833 v 29.104 c -0.333,-0.317 -0.667,-0.628 -0.992,-0.945 -7.284,-7.299 -11.7619998,-17.303 -11.7699998,-28.422 0.008,-11.12 4.4859998,-21.1230003 11.7699998,-28.4150003 7.291,-7.2839997 17.302,-11.7699997 28.414,-11.7699997 11.12,0 21.123,4.486 28.423,11.7699997 7.284,7.292 11.763,17.2950003 11.77,28.4150003 -0.008,11.119 -4.487,21.123 -11.77,28.422 -0.326,0.317 -0.658,0.628 -0.992,0.945 v -29.104 z"
         id="path843" />
      <rect
         style="opacity:0.999;fill:#000000;fill-opacity:1;stroke-width:0"
         id="rect861"
         width="375.23196"
         height="126.07794"
         x="349.43851"
         y="-137.90179" />
      <rect
         style="opacity:0.999;fill:#000000;fill-opacity:1;stroke-width:0"
         id="rect861-3"
         width="375.23196"
         height="126.07794"
         x="349.43851"
         y="21.316168" />
      <rect
         style="opacity:0.999;fill:#000000;fill-opacity:1;stroke-width:0"
         id="rect861-3-6"
         width="375.23196"
         height="126.07794"
         x="349.43851"
         y="187.70583" />
      <rect
         style="opacity:0.999;fill:#000000;fill-opacity:1;stroke-width:0"
         id="rect861-3-0"
         width="375.23196"
         height="126.07794"
         x="349.43851"
         y="350.82947" />
      <rect
         style="opacity:0.999;fill:#000000;fill-opacity:1;stroke-width:0"
         id="rect861-3-5"
         width="375.23196"
         height="126.07794"
         x="349.43851"
         y="513.21082" />
      <path
         class="st0"
         d="m 222.2671,215.99744 c -14.552,-34.381 -38.791,-63.57 -69.336,-84.206 -15.28,-10.322 -32.134,-18.505 -50.135,-24.106 -18.000001,-5.595 -37.155001,-8.608997 -56.930001,-8.608997 -26.369,0 -51.6069998,5.353997 -74.528,15.055997 -34.388,14.544 -63.571,38.79 -84.212999,69.336 -10.322,15.28 -18.497,32.134 -24.099,50.134 -5.594,18.001 -8.609,37.148 -8.609,56.93 0,26.37 5.354,51.607 15.056,74.528 14.544,34.389 38.789999,63.571 69.334999,84.214 15.281,10.314 32.134,18.496 50.135,24.098 18.0010002,5.595 37.147,8.609 56.922,8.609 26.376,0 51.615,-5.354 74.536001,-15.056 34.381,-14.544 63.571,-38.791 84.206,-69.336 10.321,-15.28 18.504,-32.134 24.106,-50.134 5.595,-18.001 8.608,-37.148 8.608,-56.923 0.001,-26.377 -5.353,-51.615 -15.054,-74.535 z m -66.849,170.906 -20.271,-20.27 -13.173,13.172 20.263,20.263 c -4.68,4.123 -9.616,7.966 -14.8,11.468 -11.647,7.873 -24.479,14.095 -38.170001,18.349 -10.864,3.379 -22.262,5.502 -34.087,6.246 v -28.663 h -18.62 v 28.671 c -16.792,-1.054 -32.7389998,-4.92 -47.484,-11.151 -14.536,-6.145 -27.888,-14.614 -39.589,-24.912 l 20.279,-20.271 -13.172,-13.172 -20.264,20.263 c -4.122,-4.68 -7.966,-9.617 -11.468,-14.8 -7.873,-11.646 -14.094,-24.478 -18.349,-38.17 -3.378,-10.856 -5.501,-22.263 -6.245,-34.087 h 28.662 v -18.628 h -28.67 c 1.054,-16.776 4.921,-32.731 11.151,-47.477 6.144,-14.536 14.606,-27.88 24.912,-39.581 l 20.271,20.271 13.172,-13.172 -20.263,-20.263 c 4.68,-4.123 9.616,-7.966 14.8,-11.468 11.647,-7.873 24.479,-14.095 38.1710002,-18.349 10.8559998,-3.378 22.2619998,-5.502 34.0869998,-6.246 v 28.663 h 18.62 v -28.67 c 16.784,1.054 32.738,4.92 47.484001,11.15 26.152,11.058 48.476,29.592 64.214,52.894 7.873,11.646 14.095,24.478 18.349,38.17 3.379,10.856 5.502,22.262 6.246,34.079 l -28.663,0.008 v 18.62 h 28.671 c -1.054,16.784 -4.92,32.739 -11.151,47.485 -6.145,14.534 -14.615,27.886 -24.913,39.578 z"
         id="path837" />
    </g>
  </g>
  <style
     type="text/css"
     id="style833">
	.st0{fill:#000000;}
</style>
</svg>
